<?xml version="1.0" standalone="no"?>
<!DOCTYPE svg PUBLIC "-//W3C//DTD SVG 20010904//EN"
 "http://www.w3.org/TR/2001/REC-SVG-20010904/DTD/svg10.dtd">
<svg version="1.0" xmlns="http://www.w3.org/2000/svg"
 width="256.000000pt" height="256.000000pt" viewBox="0 0 256.000000 256.000000"
 preserveAspectRatio="xMidYMid meet">
<metadata>
Created by potrace 1.15, written by Peter Selinger 2001-2017
</metadata>
<g transform="translate(0.000000,256.000000) scale(0.100000,-0.100000)"
fill="#000000" stroke="none">
<path d="M962 1641 c-105 -90 -122 -114 -122 -169 0 -26 6 -55 13 -64 32 -42
183 -169 213 -178 36 -12 107 1 120 22 9 15 -50 65 -85 73 -38 8 -151 116
-151 144 0 13 20 43 49 73 68 72 92 71 172 -8 33 -32 63 -71 66 -86 3 -14 19
-39 35 -55 l30 -28 19 24 c23 28 25 81 4 121 -8 16 -55 65 -105 109 -87 78
-91 81 -140 81 -46 0 -54 -4 -118 -59z"/>
<path d="M1129 1406 c-7 -14 -8 -30 -3 -38 5 -8 62 -65 127 -126 91 -87 125
-112 146 -112 15 0 32 5 39 12 30 30 13 56 -115 172 -138 125 -172 141 -194
92z"/>
<path d="M1413 1325 c-18 -8 -33 -18 -33 -23 0 -16 55 -59 84 -66 16 -4 55
-32 87 -63 77 -73 78 -92 5 -162 -30 -28 -61 -51 -70 -51 -26 0 -147 111 -153
141 -3 15 -22 43 -43 64 l-37 36 -16 -25 c-10 -14 -17 -44 -17 -67 0 -39 6
-48 88 -131 97 -100 124 -118 177 -118 52 0 81 18 163 103 67 70 72 78 72 118
-1 59 -11 75 -106 163 -106 98 -135 110 -201 81z"/>
</g>
</svg>
